/* XPM */
static char * bitbony64_xpm[] = {
"64 64 197 2",
"  	c None",
". 	c #1270CA",
"+ 	c #0F6FC9",
"@ 	c #0064C5",
"# 	c #0065C5",
"$ 	c #0066C6",
"% 	c #0669C7",
"& 	c #0065C6",
"* 	c #1371CA",
"= 	c #1570CA",
"- 	c #106FC9",
"; 	c #0B6BC8",
"> 	c #1573CB",
", 	c #086AC8",
"' 	c #0C6CC8",
") 	c #1A74CB",
"! 	c #0A6CC8",
"~ 	c #0F6EC9",
"{ 	c #076AC7",
"] 	c #0E6FC9",
"^ 	c #1772CA",
"/ 	c #1370C9",
"( 	c #1872CA",
"_ 	c #086BC8",
": 	c #0063C5",
"< 	c #1471CA",
"[ 	c #0D6DC9",
"} 	c #1472CB",
"| 	c #116FC9",
"1 	c #0166C6",
"2 	c #0C6DC8",
"3 	c #1572CB",
"4 	c #0D6EC9",
"5 	c #1472CA",
"6 	c #1673CB",
"7 	c #0E6DC8",
"8 	c #0869C7",
"9 	c #1170CA",
"0 	c #106FCA",
"a 	c #0B6CC8",
"b 	c #0A6BC8",
"c 	c #1672CB",
"d 	c #1672CA",
"e 	c #0468C6",
"f 	c #0064C6",
"g 	c #1A75CC",
"h 	c #1271CA",
"i 	c #2078CC",
"j 	c #0D6CC8",
"k 	c #0267C6",
"l 	c #0C6DC9",
"m 	c #126FC9",
"n 	c #1070CA",
"o 	c #1D76CC",
"p 	c #2B80CF",
"q 	c #086AC7",
"r 	c #106EC9",
"s 	c #0367C6",
"t 	c #096BC7",
"u 	c #1E76CC",
"v 	c #0062C4",
"w 	c #1874CB",
"x 	c #1B76CC",
"y 	c #1572CA",
"z 	c #0B6DC9",
"A 	c #1C75CB",
"B 	c #0769C7",
"C 	c #076AC8",
"D 	c #096AC8",
"E 	c #1170C9",
"F 	c #1772CB",
"G 	c #1571CA",
"H 	c #2071C8",
"I 	c #0063C4",
"J 	c #1070C9",
"K 	c #0568C7",
"L 	c #076DCD",
"M 	c #2E7BCD",
"N 	c #1571C9",
"O 	c #2E74C7",
"P 	c #0267C7",
"Q 	c #0F76D1",
"R 	c #0473D0",
"S 	c #1369C6",
"T 	c #0064C4",
"U 	c #2171C7",
"V 	c #0D7BD2",
"W 	c #0678D4",
"X 	c #006ECE",
"Y 	c #026FCD",
"Z 	c #0666C6",
"` 	c #0268C9",
" .	c #1C6FC8",
"..	c #2375C7",
"+.	c #0472CF",
"@.	c #3477CA",
"#.	c #0973D0",
"$.	c #0567C6",
"%.	c #0C77D3",
"&.	c #0464C6",
"*.	c #006BCC",
"=.	c #156AC5",
"-.	c #0875D1",
";.	c #3775C7",
">.	c #0570CF",
",.	c #0D79D4",
"'.	c #3478C9",
").	c #0066C7",
"!.	c #0A67C6",
"~.	c #0067C8",
"{.	c #176AC6",
"].	c #1068C6",
"^.	c #0062C5",
"/.	c #0570D0",
"(.	c #016FCE",
"_.	c #196BC7",
":.	c #3076C8",
"<.	c #0976D1",
"[.	c #0D68C6",
"}.	c #0C74CE",
"|.	c #1B72C9",
"1.	c #0066C5",
"2.	c #006AD1",
"3.	c #006DCE",
"4.	c #1D72C7",
"5.	c #266EC7",
"6.	c #2870C7",
"7.	c #0068C9",
"8.	c #0372CF",
"9.	c #2974C8",
"0.	c #0F6CCE",
"a.	c #0677D2",
"b.	c #1D6FC7",
"c.	c #0570CD",
"d.	c #2874C8",
"e.	c #0170CF",
"f.	c #1C71C7",
"g.	c #1C74CD",
"h.	c #0D72CF",
"i.	c #0069C9",
"j.	c #1972CA",
"k.	c #136FC8",
"l.	c #0266C6",
"m.	c #2772C7",
"n.	c #046BC9",
"o.	c #1E75CA",
"p.	c #056CCA",
"q.	c #146DC7",
"r.	c #226EC7",
"s.	c #0D72CE",
"t.	c #166EC8",
"u.	c #0366C6",
"v.	c #0269C9",
"w.	c #2772C8",
"x.	c #1674CC",
"y.	c #1B6FC8",
"z.	c #196FC8",
"A.	c #0065C4",
"B.	c #0167C7",
"C.	c #1070CB",
"D.	c #1D6FC8",
"E.	c #0C6FCA",
"F.	c #0571CF",
"G.	c #196DC7",
"H.	c #0066C8",
"I.	c #237ACD",
"J.	c #0E6EC9",
"K.	c #1D77CD",
"L.	c #1370CA",
"M.	c #0569C7",
"N.	c #1470C9",
"O.	c #1873CB",
"P.	c #096CC8",
"Q.	c #1774CB",
"R.	c #066AC7",
"S.	c #066AC8",
"T.	c #0368C7",
"U.	c #0167C6",
"V.	c #1E77CC",
"W.	c #106DC9",
"X.	c #1A76CC",
"Y.	c #1674CB",
"Z.	c #0367C7",
"`.	c #1E77CD",
" +	c #1B75CC",
".+	c #0468C7",
"++	c #1773CB",
"@+	c #0A6AC8",
"#+	c #227BCD",
"$+	c #267DCE",
"%+	c #1B76CD",
"&+	c #0C6EC9",
"*+	c #096BC8",
"=+	c #0E6EC8",
"-+	c #0B6DC8",
";+	c #2079CD",
">+	c #1974CB",
"                                                                                                                                ",
"                                                                                                                                ",
"                                                                                                                                ",
"                                                                                                                                ",
"                                                                                                                                ",
"                                                                                                                                ",
"                                                                                                                                ",
"                                                                                                                                ",
"                                                    . + @ # $ % @ $ @ & * =                                                     ",
"                                              - ; & & & > , ' $ % ) ! + @ & & ~ *                                               ",
"                                          { & $ ] ^           $ /           ( _ $ : <                                           ",
"                                      [ & @ } @ @ |         $ $ /           ! $ 1 2 & @ 3                                       ",
"                                    & & |       4 & @ 5 )   6 $ /     7 * & @ .       % $ 8                                     ",
"                                9 1 4               0 a & & # $ & @ & & b c             9 4 1                                   ",
"                              + $ ;                       | ! $ & > d                       $ &                                 ",
"                            9 $ e                             $ <                             & f                               ",
"                          g & & $ # h i                     $ $ /                       j 4 @ $ & k                             ",
"                          @ %   j l @ f _ b *               $ $ /               m n @ a & @ 9 o p @ q                           ",
"                        | ,             r s & @ t s h d ;   + $ a   % u ! n v 4 & @ ] w           n l x                         ",
"                      < $ y                   ) h z : $ & & & $ $ & & & # & * A                     % @                         ",
"                      # B                                 C & $ D                                     & E                       ",
"                    9 $                                     $ $ /                                     ~ @                       ",
"                    k q                                     $ $ /                                       & F                     ",
"                    & +                                       $ G                                       a 1                     ",
"        & $ $ $ $ $ $ $ $ $ $ $ $ $ $ $ $ $ $ $ $ $ $ $ $ $ $ $ & $ $ $ $ $ $ $ $ $ $ $ $ $ $ $ $ $ $ $ & $ & $ $ $ $ $         ",
"        1 $ $ $ $ $ $ $ $ $ $ $ $ $ $ $ $ $ $ $ $ $ $ $ $ $ $ $ $ $ $ $ $ $ $ $ $ $ $ $ $ $ $ $ $ $ $ $ $ $ $ $ $ $ $ $         ",
"                                  H I                                                                                           ",
"                  & & J K & L     M N     O v         $ P - & @ Q                                                               ",
"                  & R     S T             U # V       $ W     & X                                                               ",
"                  & Y     Z `      .T   ..& $ @ v     $ +.  @.$ #.      $.@ @ @ %.    &.*.=.: # -.  ;.#       Z >.              ",
"                  & # @ @ # ,.     .T     '.#         $ # @ & ).      !.~.    {.I     &.T     ].^.    !./.    #                 ",
"                  & (.    _.T      .T     :.#         $ <.    [.$     $ }.    |.1.2.  &.3.    4.I     5.I   6.7.                ",
"                  & 8.    9.$ 0.   .T     :.@         $ a.    b.#     f c.    d.#     &.e.    f.I       f g.@ h.                ",
"                  & i.j.k.l.:      .T     m.$ n.o.    $ p.^ q.& `     r.# s.t.u.v.    &.e.    f.I       w.$ I                   ",
"                  & $ $ $ x.      y.T       z.& A.    $ $ $ B.C.        D.h > E.      &.e.    f.I         & F.                  ",
"                            $ $ $       $ $                     $ $ $ $         $ $ $     $ $     # $ $ G.$ H.                  ",
"                  @ $ @ @ @ @ @ @ @ @ @ @ @ @ @ @ @ @ @ @ @ @ $ $ @ @ @ @ @ @ @ @ @ @ @ @ @ @ @ @ @ @ @ & $ I.                  ",
"                  J.$ 5                                     K.$ !                                       . $                     ",
"                    @ *                                       $ /                                       K %                     ",
"                    l :                                       $ /                                       $ [                     ",
"                      $ d                                     $ L.                                    { @                       ",
"                      _ @                           u ! > M.& $ & & _ 6 a N.                        o $ 5                       ",
"                        : y               O.. % , & & @ @ P.- $ $ Q.R.@ & & @ ; l <                 S.T.                        ",
"                        g U.c       y 4 K & # % V.|           $ <           W.X.$ & & ! ! j       2 {                           ",
"                          B @ Y.@ & & Z.`.                    $ /                   d  +@ & & .+l $ J.                          ",
"                            k $ M.a                           $ /                           ++U.$ @+                            ",
"                              $ $                           #+$ b                           9 & %                               ",
"                                U.: $+                w .+& & $ $ & : 4 %+                6 $ B                                 ",
"                                  &+Z.[           C @ 2 *+J.O.$ q A J ^.=+@ F           { *+J.                                  ",
"                                    J.& & >   [ & @ O.        $ /         C $ & w   < @ @ y                                     ",
"                                        % & & $ |             $ /             # $ @ $ !                                         ",
"                                          w B & ' -+d         $ <         < s ~ & P.                                            ",
"                                                x & & & & @ & 1 & & @ & & & % x                                                 ",
"                                                      / ~ * < ;+[ > 4 >+                                                        ",
"                                                                                                                                ",
"                                                                                                                                ",
"                                                                                                                                ",
"                                                                                                                                ",
"                                                                                                                                ",
"                                                                                                                                ",
"                                                                                                                                ",
"                                                                                                                                ",
"                                                                                                                                ",
"                                                                                                                                "};
