/* XPM */
static char * bitbony16_xpm[] = {
"16 16 41 1",
" 	c None",
".	c #0568C7",
"+	c #0B6CC8",
"@	c #0367C7",
"#	c #096AC7",
"$	c #0D6DC9",
"%	c #096BC8",
"&	c #0B6CC9",
"*	c #0669C7",
"=	c #0A6CC9",
"-	c #0A6BC8",
";	c #0C6CC8",
">	c #096BC7",
",	c #0166C6",
"'	c #0D6DC8",
")	c #0F6EC9",
"!	c #0066C6",
"~	c #0567C6",
"{	c #0167C7",
"]	c #086BC8",
"^	c #0468C7",
"/	c #0566C6",
"(	c #0267C7",
"_	c #0066C7",
":	c #0065C6",
"<	c #106CC9",
"[	c #096BC9",
"}	c #106FC8",
"|	c #0F68C6",
"1	c #0C6CC9",
"2	c #0F6ECA",
"3	c #0E6BC8",
"4	c #0B6BC9",
"5	c #0F6DC8",
"6	c #086AC8",
"7	c #1270C9",
"8	c #0569C7",
"9	c #126FCA",
"0	c #0B6DC8",
"a	c #0367C6",
"b	c #0A6CC8",
"                ",
"                ",
"     .+@#$%     ",
"    &  *+  =    ",
"   -;$>,+')#%   ",
"                ",
" !~{]^/(_!!!!:! ",
"  <[ }|1 ) 2    ",
"  3[   [ 1   4  ",
"  .    *5    6  ",
"      78-9  0   ",
"    ^  a   *    ",
"     6)  'b     ",
"       +*       ",
"                ",
"                "};
