/* XPM */
static char * bitbony32_xpm[] = {
"32 32 100 2",
"  	c None",
". 	c #0E6DC9",
"+ 	c #076AC7",
"@ 	c #0769C7",
"# 	c #0468C7",
"$ 	c #0668C7",
"% 	c #0568C7",
"& 	c #0869C7",
"* 	c #0B6CC8",
"= 	c #0367C7",
"- 	c #0D6DC8",
"; 	c #0064C6",
"> 	c #096BC8",
", 	c #0266C6",
"' 	c #0A6BC8",
") 	c #1371CA",
"! 	c #086AC8",
"~ 	c #0A6CC8",
"{ 	c #0367C6",
"] 	c #0668C6",
"^ 	c #0C6CC9",
"/ 	c #106EC9",
"( 	c #0C6DC9",
"_ 	c #0267C6",
": 	c #0F6FC9",
"< 	c #076AC8",
"[ 	c #0669C7",
"} 	c #1070CA",
"| 	c #0065C6",
"1 	c #0C6CC8",
"2 	c #086AC7",
"3 	c #0A6AC8",
"4 	c #0E6DC8",
"5 	c #0D6CC8",
"6 	c #0D6DC9",
"7 	c #0F6EC8",
"8 	c #0066C6",
"9 	c #1869C6",
"0 	c #066AC9",
"a 	c #1D69C6",
"b 	c #166BC7",
"c 	c #016BCC",
"d 	c #136CC6",
"e 	c #0168C7",
"f 	c #1367C5",
"g 	c #1D6DC7",
"h 	c #0A6AC7",
"i 	c #096CCA",
"j 	c #126AC5",
"k 	c #1D6AC6",
"l 	c #066BC9",
"m 	c #0A68C6",
"n 	c #006ECC",
"o 	c #0772CC",
"p 	c #1368C6",
"q 	c #096CC9",
"r 	c #0767C6",
"s 	c #0F67C6",
"t 	c #016ACA",
"u 	c #026ECD",
"v 	c #056BC8",
"w 	c #006FCF",
"x 	c #126AC7",
"y 	c #0870CC",
"z 	c #136DC7",
"A 	c #056ACA",
"B 	c #016BC9",
"C 	c #0C73CE",
"D 	c #116BC6",
"E 	c #036BCB",
"F 	c #236CC6",
"G 	c #026CCB",
"H 	c #156CC6",
"I 	c #036DCB",
"J 	c #0172D0",
"K 	c #0470CA",
"L 	c #0F6BC8",
"M 	c #046CCA",
"N 	c #0968C7",
"O 	c #0569C8",
"P 	c #116DC8",
"Q 	c #146AC6",
"R 	c #0267C7",
"S 	c #0167C6",
"T 	c #086BC8",
"U 	c #116EC9",
"V 	c #0B6BC8",
"W 	c #1170CA",
"X 	c #0065C5",
"Y 	c #0C6BC8",
"Z 	c #0D6EC9",
"` 	c #096CC8",
" .	c #0569C7",
"..	c #0166C6",
"+.	c #0669C8",
"@.	c #0468C6",
"#.	c #1471C9",
"$.	c #1572CA",
"%.	c #0469C7",
"&.	c #0E6EC9",
"                                                                ",
"                                                                ",
"                                                                ",
"                                                                ",
"                        . + @ # $ % & *                         ",
"                    % = -     ;       > , '                     ",
"                ) !     ~ * ! { ] @ ^ /     !                   ",
"              ( '             _ :             <                 ",
"              [ % & }         |           1 % 2 $               ",
"            '         3 ~ 2 % = ~ % [ 4 3         >             ",
"          >                   | 5                 6 7           ",
"          %                   |                     !           ",
"    8 8 8 8 8 8 8 8 8 8 8 8 8 8 | 8 8 8 8 8 8 8 8 8 8 8 8 8     ",
"          @ <             9 2 0                                 ",
"        a   b c     d e   f   g     h *     i 3   j             ",
"        k l m     n   o   p q r   s     t   u   v   w x         ",
"        k y z A   n   B   f C D E F G H I   J   K   L M         ",
"          8 <         N     | O     P (             Q           ",
"          { - 5 5 5 5 5 5 5 5 # > 5 5 5 5 5 5 5 5 5 R           ",
"          $                   S                     #           ",
"          T U                 R $                 >             ",
"            '       V [ 1 -   [ W X ^ Y [ Z       `             ",
"               ...+.          _             %  .%               ",
"                @.          %  .[ /           =                 ",
"                  %     % /   + #.  * ~   U @                   ",
"                    > | $.    %.      7 8 ~                     ",
"                          ! @ &.! @ @                           ",
"                                                                ",
"                                                                ",
"                                                                ",
"                                                                ",
"                                                                "};
